<?xml version="1.0" standalone="no"?>
<!DOCTYPE svg PUBLIC "-//W3C//DTD SVG 20010904//EN"
 "http://www.w3.org/TR/2001/REC-SVG-20010904/DTD/svg10.dtd">
<svg version="1.0" xmlns="http://www.w3.org/2000/svg"
 width="629.000000pt" height="518.000000pt" viewBox="0 0 629.000000 518.000000"
 preserveAspectRatio="xMidYMid meet">

<g transform="translate(0.000000,518.000000) scale(0.100000,-0.100000)"
fill="#000000" stroke="none">
<path d="M2840 5025 c-202 -25 -390 -81 -563 -167 -109 -55 -253 -144 -276
-171 -22 -27 -4 -20 52 21 113 83 292 176 426 221 87 30 245 69 306 76 28 3
79 10 115 15 112 16 215 12 415 -16 140 -19 349 -86 488 -155 331 -166 590
-415 759 -729 61 -112 64 -124 39 -149 -28 -28 -28 -84 -1 -111 12 -12 33 -20
55 -20 19 0 35 -3 35 -6 0 -3 11 -48 25 -100 14 -52 25 -105 25 -119 0 -14 5
-25 10 -25 13 0 13 15 -1 64 -6 21 -12 46 -14 55 -2 9 -11 42 -20 74 -16 55
-16 60 0 77 40 45 11 130 -45 130 -24 0 -32 10 -73 93 -239 477 -678 810
-1215 923 -13 2 -76 11 -140 19 -138 17 -258 17 -402 0z"/>
<path d="M4147 4338 c7 -72 7 -72 28 -65 30 12 12 127 -20 127 -12 0 -14 -11
-8 -62z"/>
<path d="M1710 4267 c-292 -132 -492 -237 -453 -237 3 0 119 56 257 124 138
68 261 127 274 131 12 3 22 11 22 16 0 12 7 15 -100 -34z"/>
<path d="M4261 4287 c-23 -12 -31 -29 -14 -34 4 -1 22 9 38 22 32 27 18 34
-24 12z"/>
<path d="M4308 4213 c-16 -3 -28 -11 -28 -19 0 -12 11 -14 63 -8 69 7 72 8 62
23 -6 11 -43 12 -97 4z"/>
<path d="M442 4133 l3 -48 73 -3 72 -3 1 -122 c0 -67 1 -252 0 -410 l0 -288
47 6 c160 21 260 45 267 62 9 25 4 315 -6 334 -4 9 -5 19 -2 23 11 10 12 55 2
62 -7 4 -7 10 0 18 11 13 10 34 -2 54 -5 6 -5 18 0 25 10 16 10 38 1 59 -5 9
-4 20 2 23 5 3 10 39 10 80 l0 74 73 3 72 3 0 45 0 45 -308 3 -308 2 3 -47z
m323 -223 c3 -5 -1 -10 -9 -10 -9 0 -16 5 -16 10 0 6 4 10 9 10 6 0 13 -4 16
-10z m75 0 c0 -5 -4 -10 -10 -10 -5 0 -10 5 -10 10 0 6 5 10 10 10 6 0 10 -4
10 -10z m-198 -42 c-9 -9 -15 -9 -24 0 -9 9 -7 12 12 12 19 0 21 -3 12 -12z
m88 2 c0 -5 -7 -10 -15 -10 -8 0 -15 5 -15 10 0 6 7 10 15 10 8 0 15 -4 15
-10z m70 0 c0 -5 -4 -10 -10 -10 -5 0 -10 5 -10 10 0 6 5 10 10 10 6 0 10 -4
10 -10z m80 0 c0 -5 -7 -10 -15 -10 -8 0 -15 5 -15 10 0 6 7 10 15 10 8 0 15
-4 15 -10z m-190 -40 c0 -5 -7 -10 -15 -10 -8 0 -15 5 -15 10 0 6 7 10 15 10
8 0 15 -4 15 -10z m75 0 c-3 -5 -10 -10 -16 -10 -5 0 -9 5 -9 10 0 6 7 10 16
10 8 0 12 -4 9 -10z m75 0 c0 -5 -4 -10 -10 -10 -5 0 -10 5 -10 10 0 6 5 10
10 10 6 0 10 -4 10 -10z m-199 -43 c-13 -13 -26 -3 -16 12 3 6 11 8 17 5 6 -4
6 -10 -1 -17z m80 0 c-13 -13 -26 -3 -16 12 3 6 11 8 17 5 6 -4 6 -10 -1 -17z
m75 -4 c-10 -10 -19 5 -10 18 6 11 8 11 12 0 2 -7 1 -15 -2 -18z m81 1 c-9 -9
-28 6 -21 18 4 6 10 6 17 -1 6 -6 8 -13 4 -17z m-196 -37 c-13 -13 -26 -3 -16
12 3 6 11 8 17 5 6 -4 6 -10 -1 -17z m81 8 c0 -5 -5 -11 -11 -13 -6 -2 -11 4
-11 13 0 9 5 15 11 13 6 -2 11 -8 11 -13z m78 0 c0 -8 -4 -15 -10 -15 -5 0
-10 7 -10 15 0 8 5 15 10 15 6 0 10 -7 10 -15z m-195 -34 c7 -12 -12 -24 -25
-16 -11 7 -4 25 10 25 5 0 11 -4 15 -9z m80 0 c7 -12 -12 -24 -25 -16 -11 7
-4 25 10 25 5 0 11 -4 15 -9z m75 -6 c0 -8 -4 -15 -10 -15 -5 0 -10 7 -10 15
0 8 5 15 10 15 6 0 10 -7 10 -15z m85 6 c7 -12 -12 -24 -25 -16 -11 7 -4 25
10 25 5 0 11 -4 15 -9z m-204 -44 c-1 -12 -15 -9 -19 4 -3 6 1 10 8 8 6 -3 11
-8 11 -12z m80 -10 c-13 -13 -26 -3 -16 12 3 6 11 8 17 5 6 -4 6 -10 -1 -17z
m79 2 c0 -5 -4 -9 -10 -9 -5 0 -10 7 -10 16 0 8 5 12 10 9 6 -3 10 -10 10 -16z
m-198 -34 c0 -5 -5 -11 -11 -13 -6 -2 -11 4 -11 13 0 9 5 15 11 13 6 -2 11 -8
11 -13z m79 2 c-1 -12 -15 -9 -19 4 -3 6 1 10 8 8 6 -3 11 -8 11 -12z m79 -3
c0 -8 -5 -12 -10 -9 -6 4 -8 11 -5 16 9 14 15 11 15 -7z m80 8 c0 -13 -12 -22
-22 -16 -10 6 -1 24 13 24 5 0 9 -4 9 -8z m-195 -42 c3 -5 -1 -10 -9 -10 -9 0
-16 5 -16 10 0 6 4 10 9 10 6 0 13 -4 16 -10z m76 -3 c-1 -12 -15 -9 -19 4 -3
6 1 10 8 8 6 -3 11 -8 11 -12z m79 4 c0 -6 -4 -13 -10 -16 -5 -3 -10 1 -10 9
0 9 5 16 10 16 6 0 10 -4 10 -9z m-195 -40 c7 -12 -12 -24 -25 -16 -11 7 -4
25 10 25 5 0 11 -4 15 -9z m76 -4 c-1 -12 -15 -9 -19 4 -3 6 1 10 8 8 6 -3 11
-8 11 -12z m79 3 c0 -5 -4 -10 -10 -10 -5 0 -10 5 -10 10 0 6 5 10 10 10 6 0
10 -4 10 -10z m-119 -43 c-1 -12 -15 -9 -19 4 -3 6 1 10 8 8 6 -3 11 -8 11
-12z m79 4 c0 -6 -4 -13 -10 -16 -5 -3 -10 1 -10 9 0 9 5 16 10 16 6 0 10 -4
10 -9z m-117 -52 c-17 -17 -37 -1 -22 17 8 10 15 12 23 4 7 -7 7 -13 -1 -21z
m81 12 c3 -5 -1 -11 -9 -15 -15 -6 -29 7 -18 18 9 9 21 8 27 -3z"/>
<path d="M2400 3980 c0 -184 -1 -200 -17 -200 -33 0 -165 31 -192 44 -37 20
-81 65 -86 90 -2 12 -6 30 -8 41 -3 12 -5 6 -6 -13 -2 -72 43 -117 149 -150
57 -17 85 -19 227 -15 197 6 547 -13 583 -32 47 -24 64 -52 68 -115 6 -85 -18
-118 -108 -143 -19 -6 -163 -13 -320 -16 l-285 -6 -3 -182 -2 -183 885 0 885
0 0 153 c1 432 -1 592 -10 601 -6 6 -10 76 -10 158 l0 148 -327 1 c-181 1
-331 1 -335 0 -5 0 -8 4 -8 9 0 7 -187 10 -540 10 l-540 0 0 -200z m385 84
c29 -32 34 -107 10 -153 -19 -38 -30 -41 -150 -41 -120 0 -131 3 -150 41 -24
46 -19 112 11 148 l26 31 114 0 c111 0 116 -1 139 -26z m1265 -18 c0 -2 -15
-6 -34 -8 -19 -2 -32 0 -30 4 5 8 64 12 64 4z m-40 -107 c0 -21 -3 -40 -8 -43
-4 -2 -6 14 -4 35 3 29 -1 46 -14 62 l-19 22 23 -19 c16 -14 22 -30 22 -57z
m65 -99 c-3 -5 -12 -10 -18 -10 -7 0 -6 4 3 10 19 12 23 12 15 0z m-38 -16
c-3 -3 -12 -4 -19 -1 -8 3 -5 6 6 6 11 1 17 -2 13 -5z m-819 -312 c3 -27 0
-32 -17 -32 -16 0 -21 6 -21 28 0 53 33 56 38 4z m50 26 c8 -8 15 -8 26 1 10
9 16 9 21 1 5 -9 10 -9 18 -1 18 18 27 12 27 -18 0 -16 6 -32 13 -34 6 -3 -1
-5 -18 -5 -16 0 -24 2 -17 5 14 5 17 43 3 43 -5 0 -12 -11 -15 -25 -7 -27 -25
-32 -44 -13 -9 9 -12 9 -12 0 0 -7 -8 -12 -17 -11 -12 0 -13 2 -5 6 10 4 9 8
-4 18 -10 7 -15 19 -11 29 7 19 19 20 35 4z m158 -3 c4 -8 1 -23 -6 -33 -7 -9
1 -2 19 16 17 17 33 32 36 32 3 0 5 -15 5 -32 0 -32 -1 -33 -45 -35 -47 -2
-54 4 -32 26 10 11 10 14 0 18 -18 7 -16 23 2 23 9 0 18 -7 21 -15z m115 -4
c14 -21 47 -17 65 7 15 21 31 8 36 -28 4 -26 1 -30 -19 -30 -13 0 -23 5 -23
10 0 6 -13 10 -30 10 -16 0 -30 -4 -30 -10 0 -5 -9 -10 -19 -10 -24 0 -37 36
-21 55 16 20 27 19 41 -4z m155 4 c4 -8 0 -23 -7 -32 -10 -12 -10 -15 -1 -9 6
4 12 2 12 -3 0 -6 -9 -11 -20 -11 -24 0 -25 8 -3 32 15 17 15 18 0 18 -10 0
-17 5 -17 10 0 16 30 12 36 -5z m59 -20 c0 -25 -4 -30 -25 -32 -17 -1 -19 0
-6 4 15 4 16 7 5 14 -12 8 -12 11 1 19 13 8 12 10 -2 10 -10 0 -18 5 -18 11 0
6 10 9 23 7 17 -2 22 -10 22 -33z m155 3 c0 -15 5 -28 10 -28 6 0 10 9 10 19
0 24 16 35 53 37 24 1 27 -2 27 -28 0 -17 4 -27 10 -23 6 3 10 2 10 -4 0 -13
-197 -14 -205 -1 -4 6 -17 10 -31 10 -13 0 -24 5 -24 11 0 7 10 9 24 7 14 -3
27 1 33 12 7 10 24 16 47 16 33 0 36 -2 36 -28z m82 -95 c-95 -2 -248 -2 -340
0 -92 1 -14 3 173 3 187 0 262 -2 167 -3z m61 -230 c-62 -2 -165 -2 -230 0
-65 1 -14 3 112 3 127 0 180 -2 118 -3z"/>
<path d="M3190 3509 c0 -11 5 -17 10 -14 6 3 10 13 10 21 0 8 -4 14 -10 14 -5
0 -10 -9 -10 -21z"/>
<path d="M3245 3520 c3 -5 8 -10 11 -10 2 0 4 5 4 10 0 6 -5 10 -11 10 -5 0
-7 -4 -4 -10z"/>
<path d="M3290 3516 c0 -8 5 -18 10 -21 6 -3 10 3 10 14 0 12 -4 21 -10 21 -5
0 -10 -6 -10 -14z"/>
<path d="M3510 3515 c0 -8 5 -15 10 -15 6 0 10 7 10 15 0 8 -4 15 -10 15 -5 0
-10 -7 -10 -15z"/>
<path d="M3604 3519 c-3 -6 -1 -16 5 -22 8 -8 11 -5 11 11 0 24 -5 28 -16 11z"/>
<path d="M3840 3515 c0 -8 5 -15 10 -15 6 0 10 7 10 15 0 8 -4 15 -10 15 -5 0
-10 -7 -10 -15z"/>
<path d="M3879 3528 c-6 -21 -5 -38 2 -38 5 0 9 9 9 20 0 16 -7 28 -11 18z"/>
<path d="M3950 3509 c0 -11 4 -18 10 -14 5 3 7 12 3 20 -7 21 -13 19 -13 -6z"/>
<path d="M3981 3504 c0 -11 3 -14 6 -6 3 7 2 16 -1 19 -3 4 -6 -2 -5 -13z"/>
<path d="M1190 3447 c0 -32 189 -155 214 -139 7 4 3 8 -9 10 -29 6 -124 69
-167 110 -28 26 -38 32 -38 19z"/>
<path d="M1152 3418 c6 -17 89 -80 96 -74 6 6 -78 85 -91 86 -5 0 -7 -6 -5
-12z"/>
<path d="M4918 3079 c-37 -21 -9 -77 32 -64 25 8 28 60 4 69 -19 7 -15 8 -36
-5z m39 -25 c8 -22 -18 -37 -36 -20 -7 8 -10 19 -7 25 10 16 36 13 43 -5z"/>
<path d="M4760 2990 c0 -6 34 -10 83 -10 64 0 89 -4 114 -20 66 -40 84 -135
38 -196 -14 -19 -36 -39 -48 -46 -16 -10 -137 -14 -477 -18 l-455 -6 462 1
c453 0 462 0 490 21 37 27 73 91 73 129 0 45 -40 107 -85 132 -32 18 -56 23
-117 23 -46 0 -78 -4 -78 -10z"/>
<path d="M667 2853 c-4 -6 53 -12 156 -16 89 -4 198 -13 241 -22 50 -10 83
-12 89 -6 6 6 -5 12 -29 16 -22 3 -60 10 -85 15 -74 15 -365 24 -372 13z"/>
<path d="M1876 2808 c-18 -42 -31 -128 -20 -128 21 1 31 18 41 70 6 30 13 61
15 69 7 30 -23 21 -36 -11z"/>
<path d="M3460 2795 c0 -8 -16 -21 -35 -29 -22 -9 -37 -24 -41 -40 -8 -32 -1
-62 14 -59 6 2 9 -4 6 -11 -6 -16 29 -31 47 -20 7 4 9 3 6 -3 -4 -6 5 -15 18
-21 28 -13 34 -49 10 -58 -8 -4 -13 -10 -10 -14 3 -5 -6 -3 -20 3 -14 7 -28
20 -31 30 -3 10 -15 17 -29 17 -20 0 -22 -3 -16 -27 4 -18 19 -34 39 -43 17
-8 32 -21 32 -27 0 -7 7 -13 15 -13 8 0 12 6 9 14 -3 9 5 15 25 19 37 8 55 39
46 83 -5 27 -13 37 -41 49 -19 8 -36 13 -38 12 -1 -1 -10 4 -19 12 -22 18 -22
47 0 60 21 11 53 -3 53 -24 0 -9 10 -15 25 -15 16 0 25 6 25 15 0 18 -43 65
-60 65 -5 0 -10 9 -10 20 0 11 -4 20 -10 20 -5 0 -10 -7 -10 -15z"/>
<path d="M705 2760 c-4 -6 45 -10 139 -10 86 0 147 4 151 10 4 6 -45 10 -139
10 -86 0 -147 -4 -151 -10z"/>
<path d="M1043 2758 c-5 -9 -9 -9 73 -10 36 0 70 4 74 8 5 5 -24 9 -66 9 -42
0 -78 -3 -81 -7z"/>
<path d="M1747 2733 c-9 -16 55 -113 74 -113 26 0 24 12 -12 70 -28 46 -51 61
-62 43z"/>
<path d="M2213 2693 c70 -2 184 -2 255 0 70 1 12 3 -128 3 -140 0 -198 -2
-127 -3z"/>
<path d="M680 2670 c0 -6 27 -10 60 -10 33 0 60 4 60 10 0 6 -27 10 -60 10
-33 0 -60 -4 -60 -10z"/>
<path d="M870 2660 c-10 -6 39 -10 148 -10 106 0 161 3 157 10 -8 13 -285 13
-305 0z"/>
<path d="M5199 2641 c8 -5 10 -14 6 -22 -6 -11 -5 -11 5 -2 14 12 6 33 -13 33
-8 0 -7 -3 2 -9z"/>
<path d="M5377 2626 c6 -28 -12 -37 -20 -11 -4 11 -4 10 -3 -2 1 -10 8 -18 16
-18 17 0 26 33 12 47 -6 6 -8 0 -5 -16z"/>
<path d="M1040 2580 c0 -5 25 -10 55 -10 30 0 55 5 55 10 0 6 -25 10 -55 10
-30 0 -55 -4 -55 -10z"/>
<path d="M2058 2583 c79 -2 205 -2 280 0 75 1 11 3 -143 3 -154 0 -216 -2
-137 -3z"/>
<path d="M1715 2570 c-4 -6 10 -10 34 -10 23 0 41 5 41 10 0 6 -15 10 -34 10
-19 0 -38 -4 -41 -10z"/>
<path d="M5362 2530 c0 -14 2 -19 5 -12 2 6 2 18 0 25 -3 6 -5 1 -5 -13z"/>
<path d="M5202 2515 c0 -16 2 -22 5 -12 2 9 2 23 0 30 -3 6 -5 -1 -5 -18z"/>
<path d="M5080 2516 c0 -8 4 -17 9 -20 5 -4 7 3 4 14 -6 23 -13 26 -13 6z"/>
<path d="M5240 2516 c0 -8 4 -17 9 -20 5 -4 7 3 4 14 -6 23 -13 26 -13 6z"/>
<path d="M4563 2513 c70 -2 184 -2 255 0 70 1 12 3 -128 3 -140 0 -198 -2
-127 -3z"/>
<path d="M5155 2500 c3 -5 8 -10 11 -10 2 0 4 5 4 10 0 6 -5 10 -11 10 -5 0
-7 -4 -4 -10z"/>
<path d="M5310 2499 c0 -5 5 -7 10 -4 6 3 10 8 10 11 0 2 -4 4 -10 4 -5 0 -10
-5 -10 -11z"/>
<path d="M803 2483 c65 -2 168 -2 230 0 62 1 9 3 -118 3 -126 0 -177 -2 -112
-3z"/>
<path d="M5152 2410 c0 -19 2 -27 5 -17 2 9 2 25 0 35 -3 9 -5 1 -5 -18z"/>
<path d="M5202 2405 c0 -16 2 -22 5 -12 2 9 2 23 0 30 -3 6 -5 -1 -5 -18z"/>
<path d="M690 2410 c0 -6 66 -10 179 -10 109 0 182 4 186 10 4 7 -58 10 -179
10 -117 0 -186 -4 -186 -10z"/>
<path d="M1145 2410 c-3 -6 0 -13 9 -16 23 -9 69 0 74 14 5 15 -74 17 -83 2z"/>
<path d="M5466 2401 c-19 -7 -19 -8 2 -13 15 -4 22 -2 22 8 0 8 -1 14 -2 13
-2 0 -12 -4 -22 -8z"/>
<path d="M1664 2356 c-12 -31 0 -51 31 -51 27 0 30 3 30 30 0 25 -4 30 -28 33
-17 2 -29 -2 -33 -12z"/>
<path d="M2389 2319 c-97 -19 -218 -58 -304 -99 -84 -40 -164 -126 -215 -231
-22 -45 -49 -92 -59 -103 -11 -12 -31 -46 -45 -76 -22 -47 -26 -69 -26 -150 0
-179 80 -301 235 -359 78 -29 203 -29 282 1 117 43 219 176 230 299 3 32 9 56
14 54 4 -3 29 -10 56 -15 26 -5 113 -24 193 -41 257 -55 237 -53 268 -29 28
23 50 23 162 0 57 -11 167 -26 292 -40 127 -15 181 -6 227 35 78 68 279 165
345 165 26 1 28 2 14 11 -10 5 -51 19 -90 30 -40 11 -95 26 -123 34 -27 9 -59
17 -69 20 -11 2 -47 13 -80 24 -34 10 -81 24 -106 31 -25 7 -79 22 -120 35
-70 21 -118 35 -147 41 -7 1 -41 11 -75 22 -35 11 -81 24 -103 30 -57 16 -184
52 -225 65 -19 6 -39 12 -45 13 -5 1 -50 14 -100 29 -49 14 -115 33 -145 41
-30 8 -72 21 -93 28 l-39 13 54 35 c29 20 75 50 102 67 28 17 48 31 45 31 -89
7 -243 2 -310 -11z m16 -104 c-23 -8 -83 -10 -79 -3 3 4 24 8 47 7 23 0 38 -2
32 -4z m-115 -20 c-14 -8 -32 -14 -40 -14 -8 0 -1 6 15 14 40 18 57 18 25 0z
m185 5 c13 -6 15 -9 5 -9 -8 0 -22 4 -30 9 -18 12 -2 12 25 0z m-285 -43 c0
-2 -15 -16 -32 -33 l-33 -29 29 33 c28 30 36 37 36 29z m503 -94 c3 -5 -28 -8
-68 -8 -40 0 -71 3 -68 8 2 4 33 7 68 7 35 0 66 -3 68 -7z m-156 -9 c-3 -3
-12 -4 -19 -1 -8 3 -5 6 6 6 11 1 17 -2 13 -5z m206 -1 c-7 -2 -19 -2 -25 0
-7 3 -2 5 12 5 14 0 19 -2 13 -5z m-543 -17 c8 -2 -11 -4 -42 -5 -32 0 -58 2
-58 7 0 7 64 6 100 -2z m300 10 c0 -2 -7 -7 -16 -10 -8 -3 -12 -2 -9 4 6 10
25 14 25 6z m377 -32 c-5 -5 -57 13 -57 20 0 3 14 0 31 -6 16 -6 28 -12 26
-14z m-468 -42 c-19 -21 -36 -37 -38 -35 -5 3 59 73 67 73 2 0 -11 -17 -29
-38z m-63 -3 c3 -6 -5 -3 -20 6 -14 10 -26 19 -26 22 0 7 39 -17 46 -28z m674
11 c18 -12 2 -12 -25 0 -13 6 -15 9 -5 9 8 0 22 -4 30 -9z m95 -31 c5 -5 -5
-4 -23 2 -17 6 -32 13 -32 16 0 7 43 -8 55 -18z m215 -55 c55 -20 22 -16 -45
6 -33 11 -44 17 -25 13 19 -3 50 -11 70 -19z m160 -44 c18 -12 2 -12 -25 0
-13 6 -15 9 -5 9 8 0 22 -4 30 -9z m95 -30 c3 -6 -1 -7 -9 -4 -18 7 -21 14 -7
14 6 0 13 -4 16 -10z m-1435 -6 c-35 -7 -98 -9 -94 -2 3 5 29 7 57 7 29 -1 45
-3 37 -5z m1490 -4 c18 -12 2 -12 -25 0 -13 6 -15 9 -5 9 8 0 22 -4 30 -9z
m-1401 -45 c17 -20 31 -41 31 -48 0 -7 -9 2 -19 19 -11 18 -30 39 -42 48 -13
9 -18 16 -12 16 6 0 25 -16 42 -35z m1496 15 c3 -6 -1 -7 -9 -4 -18 7 -21 14
-7 14 6 0 13 -4 16 -10z m55 -10 c18 -12 2 -12 -25 0 -13 6 -15 9 -5 9 8 0 22
-4 30 -9z m-1810 -30 c-6 -11 -13 -20 -16 -20 -2 0 0 9 6 20 6 11 13 20 16 20
2 0 0 -9 -6 -20z m1863 13 c-7 -2 -19 -2 -25 0 -7 3 -2 5 12 5 14 0 19 -2 13
-5z m52 -13 c13 -6 15 -9 5 -9 -8 0 -22 4 -30 9 -18 12 -2 12 25 0z m-1938
-112 c-2 -18 -4 -6 -4 27 0 33 2 48 4 33 2 -15 2 -42 0 -60z m320 5 c-2 -16
-4 -5 -4 22 0 28 2 40 4 28 2 -13 2 -35 0 -50z m-276 -100 c13 -16 12 -17 -3
-4 -10 7 -18 15 -18 17 0 8 8 3 21 -13z m249 13 c0 -2 -8 -10 -17 -17 -16 -13
-17 -12 -4 4 13 16 21 21 21 13z m-67 -48 c-2 -5 -33 -8 -68 -8 -35 0 -66 3
-68 8 -3 4 28 7 68 7 40 0 71 -3 68 -7z"/>
<path d="M5145 2320 c-2 -3 8 -6 23 -5 21 0 28 -6 33 -25 6 -23 7 -23 8 6 1
28 -2 31 -29 31 -17 0 -33 -3 -35 -7z"/>
<path d="M5312 2316 c7 -8 15 -12 17 -11 5 6 -10 25 -20 25 -5 0 -4 -6 3 -14z"/>
<path d="M5365 2320 c-3 -5 -1 -10 4 -10 6 0 11 5 11 10 0 6 -2 10 -4 10 -3 0
-8 -4 -11 -10z"/>
<path d="M5240 2296 c0 -8 4 -17 9 -20 5 -4 7 3 4 14 -6 23 -13 26 -13 6z"/>
<path d="M748 2293 c39 -2 105 -2 145 0 39 1 7 3 -73 3 -80 0 -112 -2 -72 -3z"/>
<path d="M5356 2291 c-19 -7 -19 -8 2 -13 15 -4 22 -2 22 8 0 8 -1 14 -2 13
-2 0 -12 -4 -22 -8z"/>
<path d="M1040 2280 c0 -5 23 -10 50 -10 28 0 50 5 50 10 0 6 -22 10 -50 10
-27 0 -50 -4 -50 -10z"/>
<path d="M808 2233 c67 -2 177 -2 245 0 67 1 12 3 -123 3 -135 0 -190 -2 -122
-3z"/>
<path d="M700 2110 c0 -6 65 -10 175 -10 110 0 175 4 175 10 0 6 -65 10 -175
10 -110 0 -175 -4 -175 -10z"/>
<path d="M1135 2100 c-3 -6 5 -10 19 -10 14 0 28 5 31 10 3 6 -5 10 -19 10
-14 0 -28 -4 -31 -10z"/>
<path d="M920 2000 c0 -6 36 -10 89 -10 50 0 93 5 96 10 4 6 -28 10 -89 10
-57 0 -96 -4 -96 -10z"/>
<path d="M758 1983 c23 -2 61 -2 85 0 23 2 4 4 -43 4 -47 0 -66 -2 -42 -4z"/>
<path d="M1010 1901 c0 -7 29 -12 75 -13 41 -1 85 -2 97 -2 12 -1 23 4 25 9 2
6 -36 11 -97 13 -68 3 -100 0 -100 -7z"/>
<path d="M4640 1415 l0 -485 184 0 c149 1 187 4 196 15 11 13 102 15 641 15
l629 0 0 430 0 430 -636 0 -636 0 4 40 4 40 -193 0 -193 0 0 -485z m224 369
c23 -22 20 -70 -6 -94 -26 -24 -46 -25 -76 -4 -27 18 -30 69 -5 96 20 22 66
24 87 2z"/>
<path d="M658 1853 c12 -2 32 -2 45 0 12 2 2 4 -23 4 -25 0 -35 -2 -22 -4z"/>
<path d="M740 1850 c0 -5 20 -10 44 -10 25 0 48 5 51 10 4 6 -13 10 -44 10
-28 0 -51 -4 -51 -10z"/>
<path d="M885 1850 c-4 -7 52 -10 159 -10 104 0 166 4 166 10 0 6 -60 10 -159
10 -96 0 -162 -4 -166 -10z"/>
<path d="M1045 1780 c-4 -6 25 -10 79 -10 51 0 86 4 86 10 0 6 -33 10 -79 10
-44 0 -83 -4 -86 -10z"/>
<path d="M637 1733 c-4 -6 54 -12 160 -16 243 -10 393 -9 393 3 0 6 -41 10
-102 10 -57 0 -180 3 -274 7 -110 4 -173 2 -177 -4z"/>
<path d="M654 1621 c-17 -17 29 -20 277 -20 193 1 279 4 277 11 -4 10 -544 19
-554 9z"/>
<path d="M810 1550 c0 -6 53 -10 140 -10 87 0 140 4 140 10 0 6 -53 10 -140
10 -87 0 -140 -4 -140 -10z"/>
<path d="M1130 1550 c0 -5 18 -10 40 -10 22 0 40 5 40 10 0 6 -18 10 -40 10
-22 0 -40 -4 -40 -10z"/>
<path d="M650 1540 c0 -5 22 -10 49 -10 28 0 53 5 56 10 4 6 -15 10 -49 10
-31 0 -56 -4 -56 -10z"/>
<path d="M3210 1495 c0 -14 -9 -34 -20 -45 -14 -14 -16 -20 -6 -20 19 0 35 22
42 58 4 21 3 32 -5 32 -6 0 -11 -11 -11 -25z"/>
<path d="M418 1318 c4 -360 8 -394 10 -100 1 160 -1 292 -5 292 -5 0 -7 -87
-5 -192z"/>
<path d="M3250 1481 c0 -11 -7 -27 -16 -36 -19 -19 -11 -33 10 -16 15 13 27
71 14 71 -4 0 -8 -9 -8 -19z"/>
<path d="M640 1469 c0 -14 34 -19 116 -19 118 0 105 18 -16 22 -55 2 -100 0
-100 -3z"/>
<path d="M1043 1472 c-104 -1 -173 -6 -173 -12 0 -12 329 -13 349 -1 23 15 2
16 -176 13z"/>
<path d="M353 1360 c0 -30 2 -43 4 -27 2 15 2 39 0 55 -2 15 -4 2 -4 -28z"/>
<path d="M640 1400 c0 -5 23 -10 50 -10 28 0 50 5 50 10 0 6 -22 10 -50 10
-27 0 -50 -4 -50 -10z"/>
<path d="M795 1400 c-4 -7 70 -10 214 -10 141 0 221 4 221 10 0 6 -78 10 -214
10 -133 0 -217 -4 -221 -10z"/>
<path d="M645 1330 c-4 -7 57 -10 174 -10 114 0 181 4 181 10 0 6 -65 10 -174
10 -106 0 -177 -4 -181 -10z"/>
<path d="M1025 1330 c-4 -6 30 -10 94 -10 61 0 101 4 101 10 0 6 -38 10 -94
10 -53 0 -98 -4 -101 -10z"/>
<path d="M3460 1250 c65 -22 105 -29 171 -29 90 -1 197 15 214 32 7 6 0 7 -20
3 -16 -4 -77 -12 -136 -18 -106 -11 -151 -5 -247 33 -13 5 -33 9 -45 8 -12 -1
16 -14 63 -29z"/>
<path d="M645 1249 c-4 -6 -5 -13 -2 -15 9 -9 97 8 91 17 -7 13 -81 11 -89 -2z"/>
<path d="M750 1250 c0 -6 33 -10 80 -10 47 0 80 4 80 10 0 6 -33 10 -80 10
-47 0 -80 -4 -80 -10z"/>
<path d="M935 1250 c4 -6 68 -10 160 -10 92 0 156 4 160 10 4 7 -52 10 -160
10 -108 0 -164 -3 -160 -10z"/>
<path d="M2435 1215 c-27 -8 -54 -14 -59 -15 -5 0 -7 -3 -3 -6 8 -8 115 15
122 27 8 11 1 11 -60 -6z"/>
<path d="M354 1085 c0 -71 1 -99 3 -62 2 37 2 96 0 130 -2 34 -3 4 -3 -68z"/>
<path d="M670 1200 c0 -6 105 -10 295 -10 190 0 295 4 295 10 0 6 -105 10
-295 10 -190 0 -295 -4 -295 -10z"/>
<path d="M2447 1183 c-27 -8 -47 -17 -45 -19 8 -7 99 13 111 25 15 15 -4 13
-66 -6z"/>
<path d="M73 284 c-24 -10 -14 -42 17 -53 33 -11 39 -28 14 -38 -11 -4 -22 1
-30 12 -12 17 -14 17 -14 2 0 -24 48 -34 67 -14 14 13 14 19 3 31 -7 9 -18 16
-25 16 -7 0 -18 7 -25 15 -17 21 14 32 37 14 14 -12 16 -12 11 1 -5 16 -34 23
-55 14z"/>
<path d="M673 235 c0 -33 2 -45 4 -27 2 18 2 45 0 60 -2 15 -4 0 -4 -33z"/>
<path d="M1193 235 c0 -33 2 -50 4 -37 5 27 20 29 28 2 3 -11 11 -20 17 -20 6
0 3 12 -7 26 -14 21 -14 28 -3 42 10 13 8 13 -9 -1 -21 -19 -22 -19 -26 15 -2
18 -4 6 -4 -27z"/>
<path d="M998 267 c-7 -22 7 -80 20 -83 7 -1 8 0 2 3 -12 6 -13 60 -1 65 5 2
3 8 -4 15 -10 9 -14 9 -17 0z"/>
<path d="M154 246 c-11 -28 0 -61 20 -61 27 0 44 30 30 53 -15 22 -43 27 -50
8z m41 -26 c0 -27 -22 -39 -31 -16 -8 22 3 49 19 43 6 -2 12 -14 12 -27z"/>
<path d="M233 225 c2 -36 5 -40 30 -41 25 -1 27 1 26 40 -1 42 -3 41 -13 -7
-9 -37 -29 -30 -38 14 -6 34 -6 34 -5 -6z"/>
<path d="M311 216 c2 -34 3 -36 6 -11 3 17 9 35 14 41 5 7 3 11 -6 11 -11 0
-15 -11 -14 -41z"/>
<path d="M361 238 c-16 -44 21 -77 49 -43 8 9 8 15 2 15 -6 0 -12 -5 -14 -12
-6 -17 -28 0 -28 22 0 25 20 36 32 19 8 -12 9 -11 5 1 -6 25 -36 24 -46 -2z"/>
<path d="M434 246 c-12 -31 0 -61 25 -61 13 0 27 7 29 15 4 13 3 13 -11 2 -9
-8 -21 -11 -27 -7 -19 11 -10 25 16 25 19 0 25 5 22 18 -4 22 -46 29 -54 8z
m41 -6 c3 -5 -3 -10 -15 -10 -12 0 -18 5 -15 10 3 6 10 10 15 10 5 0 12 -4 15
-10z"/>
<path d="M590 240 c-13 -24 3 -60 25 -60 8 0 15 -5 15 -11 0 -7 -9 -9 -21 -6
-17 5 -19 3 -10 -6 21 -21 46 6 49 54 3 41 1 45 -22 47 -17 1 -29 -5 -36 -18z
m41 3 c1 -5 2 -20 3 -35 2 -23 -1 -25 -16 -17 -26 14 -23 59 4 59 4 0 9 -3 9
-7z"/>
<path d="M704 249 c-4 -7 0 -9 13 -5 17 5 20 2 21 -24 0 -21 -4 -30 -15 -30
-9 0 -13 6 -9 15 3 8 1 15 -4 15 -6 0 -10 -9 -10 -20 0 -16 6 -20 30 -18 24 2
30 7 30 24 0 12 -3 29 -6 38 -7 18 -39 21 -50 5z"/>
<path d="M793 253 c19 -5 22 -18 7 -28 -5 -3 -15 -15 -20 -26 -10 -17 -7 -19
22 -18 24 1 27 3 10 6 l-22 4 20 29 c26 37 25 40 -7 39 -17 -1 -21 -3 -10 -6z"/>
<path d="M854 246 c-12 -31 0 -61 25 -61 13 0 27 7 29 15 4 13 3 13 -11 2 -9
-8 -21 -11 -27 -7 -19 11 -10 25 16 25 19 0 25 5 22 18 -4 22 -46 29 -54 8z
m41 -6 c3 -5 -3 -10 -15 -10 -12 0 -18 5 -15 10 3 6 10 10 15 10 5 0 12 -4 15
-10z"/>
<path d="M937 253 c-13 -13 -7 -32 13 -38 27 -9 26 -29 -1 -22 -16 4 -19 3
-11 -5 14 -14 42 -3 42 16 0 8 -9 18 -20 21 -11 3 -20 11 -20 16 0 6 9 7 21 4
15 -5 19 -4 15 4 -8 12 -29 15 -39 4z"/>
<path d="M1044 246 c-11 -28 0 -61 20 -61 27 0 44 30 30 53 -15 22 -43 27 -50
8z m41 -26 c0 -13 -6 -25 -12 -27 -16 -6 -27 21 -19 43 9 23 31 11 31 -16z"/>
<path d="M1121 238 c-16 -44 21 -77 49 -43 8 9 8 15 2 15 -6 0 -12 -5 -14 -12
-6 -17 -28 0 -28 22 0 25 20 36 32 19 8 -12 9 -11 5 1 -6 25 -36 24 -46 -2z"/>
<path d="M1301 238 c-16 -44 21 -77 49 -43 8 9 8 15 2 15 -6 0 -12 -5 -14 -12
-6 -17 -28 0 -28 22 0 25 20 36 32 19 8 -12 9 -11 5 1 -6 25 -36 24 -46 -2z"/>
<path d="M1374 246 c-11 -28 0 -61 20 -61 27 0 44 30 30 53 -15 22 -43 27 -50
8z m41 -26 c0 -13 -6 -25 -12 -27 -16 -6 -27 21 -19 43 9 23 31 11 31 -16z"/>
<path d="M1451 216 l2 -41 6 34 c9 49 31 52 32 4 1 -39 3 -38 13 10 9 39 26
34 26 -8 0 -19 5 -35 11 -35 6 0 9 16 7 38 -3 37 -3 37 -50 38 l-48 1 1 -41z"/>
<path d="M60 85 c0 -30 5 -55 10 -55 6 0 10 25 10 55 0 30 -4 55 -10 55 -5 0
-10 -25 -10 -55z"/>
<path d="M103 85 c0 -33 2 -45 4 -27 2 18 2 45 0 60 -2 15 -4 0 -4 -33z"/>
<path d="M133 85 c0 -33 2 -45 4 -27 2 18 2 45 0 60 -2 15 -4 0 -4 -33z"/>
<path d="M650 121 c0 -14 -5 -18 -19 -14 -13 3 -23 -2 -30 -16 -16 -30 2 -61
34 -59 23 2 25 6 25 55 0 29 -2 53 -5 53 -3 0 -5 -9 -5 -19z m-6 -36 c7 -18
-2 -45 -15 -45 -5 0 -12 7 -15 15 -7 18 2 45 15 45 5 0 11 -7 15 -15z"/>
<path d="M721 89 c-1 -55 0 -56 27 -55 24 1 27 5 27 36 0 28 -4 35 -20 35 -11
0 -23 9 -27 20 -3 12 -6 -4 -7 -36z m44 -19 c0 -13 -6 -25 -12 -27 -16 -6 -27
21 -19 43 9 23 31 11 31 -16z"/>
<path d="M910 86 c0 -31 5 -56 10 -56 6 0 10 12 10 26 0 20 4 25 22 22 14 -2
25 -13 29 -28 5 -16 6 -5 5 30 l-1 55 -37 3 -38 3 0 -55z m65 24 c0 -8 -10
-16 -22 -18 -18 -3 -23 2 -23 18 0 16 5 21 23 18 12 -2 22 -10 22 -18z"/>
<path d="M1140 121 c0 -14 -5 -18 -19 -14 -13 3 -23 -2 -30 -16 -16 -30 2 -61
34 -59 23 2 25 6 25 55 0 29 -2 53 -5 53 -3 0 -5 -9 -5 -19z m-6 -36 c7 -18
-2 -45 -15 -45 -13 0 -22 27 -15 45 3 8 10 15 15 15 5 0 11 -7 15 -15z"/>
<path d="M308 117 c-7 -22 7 -80 20 -83 7 -1 8 0 2 3 -12 6 -13 60 -1 65 5 2
3 8 -4 15 -10 9 -14 9 -17 0z"/>
<path d="M478 117 c-7 -22 7 -80 20 -83 7 -1 8 0 2 3 -12 6 -13 60 -1 65 5 2
3 8 -4 15 -10 9 -14 9 -17 0z"/>
<path d="M1199 119 c-8 -23 5 -82 19 -85 7 -1 8 0 2 3 -15 7 -12 63 3 63 19 0
40 -70 25 -87 -6 -8 -7 -13 -1 -13 6 0 19 25 30 55 12 30 18 55 14 55 -4 0
-12 -12 -18 -27 l-10 -28 -8 28 c-4 17 -14 27 -25 27 -10 0 -20 5 -22 12 -3 8
-6 7 -9 -3z"/>
<path d="M163 75 c2 -36 5 -40 30 -41 25 -1 27 1 26 40 -1 42 -3 41 -13 -7 -9
-37 -29 -30 -38 14 -6 34 -6 34 -5 -6z"/>
<path d="M247 103 c-13 -13 -7 -32 13 -38 27 -9 26 -29 -1 -22 -16 4 -19 3
-11 -5 14 -14 42 -3 42 16 0 8 -9 18 -20 21 -11 3 -20 11 -20 16 0 6 9 7 21 4
15 -5 19 -4 15 4 -8 12 -29 15 -39 4z"/>
<path d="M351 66 c2 -34 3 -36 6 -11 3 17 9 35 14 41 5 7 3 11 -6 11 -11 0
-15 -11 -14 -41z"/>
<path d="M404 99 c-4 -7 0 -9 13 -5 17 5 20 2 21 -24 0 -21 -4 -30 -15 -30 -9
0 -13 6 -9 15 3 8 1 15 -4 15 -6 0 -10 -9 -10 -20 0 -16 6 -20 30 -18 24 2 30
7 30 24 0 12 -3 29 -6 38 -7 18 -39 21 -50 5z"/>
<path d="M524 96 c-12 -31 0 -61 25 -61 13 0 27 7 29 15 4 13 3 13 -11 2 -9
-8 -21 -11 -27 -7 -19 11 -10 25 16 25 19 0 25 5 22 18 -4 22 -46 29 -54 8z
m41 -6 c3 -5 -3 -10 -15 -10 -12 0 -18 5 -15 10 3 6 10 10 15 10 5 0 12 -4 15
-10z"/>
<path d="M805 69 c11 -31 12 -45 4 -55 -7 -8 -7 -14 -2 -14 6 0 19 25 30 55
12 30 17 55 13 55 -4 0 -11 -12 -15 -27 l-8 -28 -10 28 c-17 44 -28 31 -12
-14z"/>
<path d="M1013 75 c2 -36 5 -40 30 -41 25 -1 27 1 26 40 -1 42 -3 41 -13 -7
-9 -37 -29 -30 -38 14 -6 34 -6 34 -5 -6z"/>
<path d="M1173 70 c0 -25 2 -35 4 -22 2 12 2 32 0 45 -2 12 -4 2 -4 -23z"/>
<path d="M1314 99 c-4 -7 0 -9 13 -5 17 5 20 2 21 -24 0 -21 -4 -30 -15 -30
-9 0 -13 6 -9 15 3 8 1 15 -4 15 -6 0 -10 -9 -10 -20 0 -16 6 -20 30 -18 24 2
30 7 30 24 0 12 -3 29 -6 38 -7 18 -39 21 -50 5z"/>
<path d="M1397 103 c-13 -13 -7 -32 13 -38 27 -9 26 -29 -1 -22 -16 4 -19 3
-11 -5 14 -14 42 -3 42 16 0 8 -9 18 -20 21 -11 3 -20 11 -20 16 0 6 9 7 21 4
15 -5 19 -4 15 4 -8 12 -29 15 -39 4z"/>
</g>
</svg>
