<svg id="visual" viewBox="0 0 900 600" width="900" height="600" xmlns="http://www.w3.org/2000/svg" xmlns:xlink="http://www.w3.org/1999/xlink" version="1.1"><rect x="0" y="0" width="900" height="600" fill="#f5e0b7"></rect><path d="M96 0L111.3 14.3C126.7 28.7 157.3 57.3 157.8 85.8C158.3 114.3 128.7 142.7 127.8 171.2C127 199.7 155 228.3 177.3 257C199.7 285.7 216.3 314.3 204.8 343C193.3 371.7 153.7 400.3 140.3 428.8C127 457.3 140 485.7 161 514.2C182 542.7 211 571.3 225.5 585.7L240 600L0 600L0 585.7C0 571.3 0 542.7 0 514.2C0 485.7 0 457.3 0 428.8C0 400.3 0 371.7 0 343C0 314.3 0 285.7 0 257C0 228.3 0 199.7 0 171.2C0 142.7 0 114.3 0 85.8C0 57.3 0 28.7 0 14.3L0 0Z" fill="#e3762b" stroke-linecap="round" stroke-linejoin="miter"></path></svg>